<?xml version="1.0" standalone="no"?>
<!DOCTYPE svg PUBLIC "-//W3C//DTD SVG 20010904//EN"
 "http://www.w3.org/TR/2001/REC-SVG-20010904/DTD/svg10.dtd">
<svg version="1.0" xmlns="http://www.w3.org/2000/svg"
 width="626.000000pt" height="626.000000pt" viewBox="0 0 626.000000 626.000000"
 preserveAspectRatio="xMidYMid meet">

<g transform="translate(0.000000,626.000000) scale(0.100000,-0.100000)"
fill="#000000" stroke="none">
<path d="M2315 5040 c-99 -33 -301 -93 -450 -135 -280 -78 -365 -111 -391
-150 -24 -36 -28 -121 -10 -205 20 -93 70 -198 170 -358 91 -145 102 -173 121
-311 19 -130 41 -180 96 -210 74 -42 156 -18 257 73 l37 34 1 -77 c2 -149 63
-306 185 -470 19 -26 20 -31 6 -57 -8 -16 -29 -72 -47 -124 -18 -52 -53 -135
-78 -185 -61 -122 -90 -212 -103 -317 -18 -148 13 -324 81 -459 31 -61 209
-314 298 -423 73 -89 213 -238 219 -232 9 8 -71 150 -127 226 -80 107 -80 109
-20 66 223 -159 310 -268 341 -426 l12 -64 54 159 c29 87 51 160 49 162 -2 2
-22 -17 -44 -42 -48 -55 -44 -62 -66 110 -16 124 -35 186 -78 262 -34 61 -103
135 -146 157 -23 12 -17 3 28 -42 95 -96 150 -229 150 -365 l0 -69 -72 64
c-84 74 -180 152 -325 262 -111 84 -156 137 -203 237 -55 119 -87 298 -75 424
6 61 60 249 83 292 6 9 13 -15 21 -69 7 -46 18 -108 26 -138 13 -53 13 -51 8
60 -9 184 19 359 67 420 16 21 22 23 37 13 10 -7 41 -26 69 -42 44 -26 52 -37
67 -83 22 -69 77 -162 130 -216 41 -42 122 -92 150 -92 8 0 28 -17 45 -39 34
-42 116 -99 177 -123 38 -15 39 -16 15 -22 -14 -3 -41 -8 -60 -10 -19 -2 36
-2 123 1 86 3 157 3 157 1 0 -10 -96 -72 -139 -90 l-46 -19 58 6 c79 7 123 28
177 80 47 46 160 110 160 91 0 -17 -47 -114 -71 -148 l-22 -30 30 16 c36 18
110 98 150 161 24 39 62 65 93 65 4 0 16 -17 26 -37 21 -45 31 -25 15 31 -21
78 33 44 63 -39 13 -36 15 -37 15 -13 1 15 -8 52 -20 83 -11 31 -18 64 -14 73
11 28 52 -52 71 -136 25 -112 16 -311 -19 -418 -25 -77 -102 -212 -113 -201
-3 3 6 35 20 70 14 35 33 91 41 123 16 60 33 213 22 204 -3 -3 -13 -41 -22
-84 -20 -98 -67 -233 -108 -311 -44 -82 -134 -175 -309 -316 -191 -155 -258
-217 -330 -308 -56 -70 -114 -168 -105 -177 2 -3 23 20 47 51 57 74 163 172
275 255 51 38 163 126 249 194 86 69 156 119 156 113 0 -11 -20 -40 -139 -209
l-44 -63 37 35 c50 46 210 229 267 305 66 87 113 177 150 285 29 85 32 107 32
210 1 136 -12 193 -83 360 l-49 117 15 49 c8 27 18 85 21 129 6 78 7 81 66
160 112 150 180 337 192 531 11 179 11 181 58 215 l42 30 7 -28 c3 -15 12 -93
18 -173 6 -80 17 -175 25 -212 21 -105 95 -238 131 -238 22 0 71 70 135 194
34 67 89 160 120 207 72 106 136 233 150 296 17 77 6 91 -138 186 -154 101
-209 149 -307 271 -41 51 -91 107 -112 126 -41 35 -42 35 34 14 40 -11 14 23
-36 48 -36 18 -66 23 -125 24 -69 1 -80 4 -94 24 -21 29 -66 23 -127 -19 -25
-17 -58 -31 -74 -31 -16 0 -71 19 -123 41 -241 106 -348 128 -645 138 l-220 7
-45 48 c-24 27 -62 78 -84 114 -81 134 -124 140 -390 52z m268 -11 c49 -37 68
-192 31 -246 l-19 -28 -5 105 c-5 99 -6 105 -27 108 -31 4 -100 -91 -169 -233
-45 -91 -59 -134 -84 -255 -35 -170 -74 -311 -108 -394 -37 -92 -118 -251
-136 -265 -22 -18 -61 -6 -90 27 -28 31 -91 122 -96 137 -2 6 -14 27 -27 48
-13 21 -21 43 -17 49 4 6 3 8 -3 5 -5 -3 -26 22 -47 56 -20 34 -53 83 -73 110
-19 26 -31 47 -26 47 5 0 17 -14 27 -30 9 -17 21 -28 27 -25 5 4 6 -2 2 -11
-4 -12 -3 -15 5 -10 7 4 12 2 12 -4 0 -6 5 -8 10 -5 6 3 10 13 10 21 0 8 -4
12 -10 9 -6 -3 -10 5 -10 18 0 14 -7 27 -15 31 -8 3 -14 9 -14 13 4 16 -14 43
-24 36 -6 -3 -7 -1 -3 5 4 6 0 24 -8 39 l-15 28 -1 -25 c0 -24 -1 -23 -22 10
-13 19 -26 37 -30 38 -5 2 -6 7 -3 12 3 4 -2 25 -11 46 -14 34 -41 158 -44
204 -2 30 -19 -25 -18 -60 l1 -35 7 35 7 35 2 -31 c0 -17 4 -46 8 -64 4 -23 3
-31 -5 -26 -13 8 -1 -39 22 -86 9 -17 16 -37 16 -44 0 -7 6 -11 13 -9 13 5 37
-37 37 -65 0 -9 3 -20 8 -26 4 -5 -5 4 -20 21 -63 70 -126 248 -113 319 7 34
47 86 67 86 8 0 9 -24 5 -78 -7 -84 4 -135 42 -211 32 -62 34 -49 3 17 -24 50
-27 71 -29 169 -2 96 1 112 15 118 54 22 335 115 364 120 110 21 207 -74 224
-220 6 -51 9 -56 20 -40 7 10 25 54 40 99 58 175 120 265 209 307 51 24 57 23
88 -2z m190 -214 c23 -20 53 -38 67 -41 61 -13 166 -47 216 -70 61 -28 129
-103 170 -189 14 -29 24 -42 24 -30 0 31 -44 117 -81 160 l-34 39 38 -28 c43
-33 79 -89 107 -168 15 -42 19 -47 20 -25 0 41 -52 148 -96 196 -20 23 -56 52
-78 64 -55 28 -33 32 105 18 154 -16 474 -113 622 -188 106 -53 157 -123 157
-216 l0 -37 -42 20 -43 21 56 -50 c54 -48 80 -91 56 -91 -7 0 -56 27 -111 60
-145 88 -212 93 -276 22 l-35 -39 -1 136 c0 75 -5 146 -10 158 -6 16 -9 -13
-10 -95 -1 -95 -6 -137 -29 -222 -48 -180 -46 -376 7 -608 14 -58 18 -96 12
-102 -6 -6 -37 0 -84 17 -62 21 -94 26 -181 27 -101 1 -108 0 -154 -29 -64
-40 -95 -97 -95 -178 0 -63 22 -163 46 -210 21 -40 89 -103 145 -135 43 -23
49 -31 49 -59 0 -52 -19 -80 -69 -101 -132 -57 -312 -89 -404 -72 -92 18 -163
88 -219 220 -29 67 -32 86 -33 170 0 52 3 111 7 130 6 32 4 30 -18 -15 -13
-27 -24 -67 -24 -87 0 -43 -11 -54 -40 -36 -20 13 -25 43 -14 86 7 26 24 29
25 5 0 -12 3 -9 8 7 25 81 68 134 156 189 29 19 40 29 25 25 -66 -18 -169
-109 -216 -191 -29 -48 -47 -51 -52 -9 -9 70 83 183 208 256 87 52 407 267
415 280 3 5 -9 2 -25 -7 -17 -8 -34 -13 -37 -10 -9 10 60 47 87 47 l25 1 -25
13 c-24 14 -24 14 33 41 91 43 157 133 191 261 20 73 34 274 19 274 -7 0 -12
-44 -15 -112 -3 -110 -5 -116 -49 -208 -44 -91 -92 -150 -124 -150 -7 0 -21
-3 -31 -7 -15 -6 -15 -2 5 25 40 57 73 169 74 257 1 138 -30 203 -120 245 -42
20 -58 22 -128 16 -110 -8 -182 -28 -305 -86 -58 -27 -118 -52 -134 -56 l-28
-7 18 29 c11 16 54 81 98 144 93 136 99 151 80 178 -12 17 -11 27 6 77 18 54
36 85 47 85 3 0 23 -16 46 -35z m1392 -246 c40 -35 97 -145 121 -234 11 -41
18 -109 19 -215 3 -163 2 -162 -16 15 -22 234 -101 415 -181 415 -29 0 -38
-14 -15 -23 6 -3 3 -6 -8 -6 -12 -1 -26 -6 -33 -13 -29 -29 -6 38 26 75 22 25
47 21 87 -14z m64 -228 c12 -35 21 -74 21 -85 -1 -29 -71 141 -77 184 l-4 35
19 -35 c11 -19 29 -64 41 -99z m-1161 83 c64 -44 89 -195 58 -337 -10 -42 -22
-80 -28 -83 -8 -5 -9 -1 -5 10 4 10 9 29 12 42 3 13 7 36 10 50 8 36 -13 21
-31 -23 -8 -18 -19 -31 -23 -28 -5 3 -12 -1 -14 -7 -3 -7 -6 -2 -6 11 l-1 23
-20 -23 -19 -24 6 36 c13 87 -32 190 -98 224 -32 17 -126 20 -149 5 -11 -7 -8
-10 16 -10 16 0 39 -7 50 -16 12 -10 14 -14 4 -11 -38 11 -123 -13 -180 -52
-33 -22 -60 -36 -60 -33 0 4 9 22 20 40 11 17 16 32 10 32 -11 0 -52 -53 -73
-96 -12 -22 -34 -39 -84 -61 -98 -45 -110 -47 -122 -25 -7 13 -5 38 5 85 18
77 51 113 130 142 27 10 112 43 189 73 127 50 148 56 220 56 61 1 89 -4 120
-19 49 -25 92 -86 101 -145 10 -68 26 -86 20 -23 -7 68 -37 137 -77 174 -33
31 -20 40 19 13z m820 -204 c52 -23 149 -105 168 -141 7 -15 16 -45 20 -68 5
-34 3 -42 -11 -48 -14 -5 -30 7 -64 45 -49 54 -114 92 -158 92 -35 0 -19 -13
35 -29 75 -21 162 -117 180 -197 5 -24 6 -64 1 -95 -10 -62 -40 -97 -134 -155
l-60 -36 40 8 c22 4 56 8 75 8 34 1 35 -1 38 -38 5 -59 -40 -189 -99 -289 -29
-48 -56 -84 -59 -80 -9 10 -32 120 -34 158 0 17 -4 32 -8 35 -4 3 -28 53 -53
110 -40 91 -44 108 -35 131 8 17 17 25 28 23 9 -3 31 0 47 4 25 8 21 9 -30 10
-36 0 -63 -4 -67 -11 -5 -8 -8 -6 -8 6 0 14 10 17 62 17 41 0 75 7 103 20 41
20 98 73 89 83 -3 2 16 23 42 44 l46 40 -20 46 c-28 63 -96 134 -142 148 -77
23 -177 -34 -249 -143 -42 -61 -58 -63 -20 -2 24 39 19 44 -11 12 -19 -21 -20
-21 -20 -2 0 21 43 101 50 95 3 -2 24 6 48 18 24 12 65 25 92 28 55 6 58 23 4
23 -41 0 -93 -20 -113 -43 -7 -9 -18 -14 -23 -11 -5 3 -23 -7 -40 -22 l-30
-29 7 45 c3 25 11 59 16 76 11 34 82 108 119 123 42 17 131 12 178 -9z m-1098
-70 c24 -24 26 -53 5 -74 -27 -26 -75 5 -75 49 0 44 37 58 70 25z m187 -62 c8
-68 -41 -148 -111 -185 -78 -40 -220 38 -241 132 -6 28 -5 28 17 -9 92 -154
272 -132 308 37 6 30 8 62 4 73 -5 15 -4 17 6 7 7 -6 15 -31 17 -55z m1577 -8
c40 -45 64 -50 91 -20 10 11 26 20 36 20 24 0 51 -42 43 -65 -5 -13 -4 -16 4
-11 26 16 10 -25 -38 -98 -28 -42 -55 -74 -60 -71 -5 3 -7 0 -4 -8 3 -8 0 -18
-7 -23 -8 -5 -10 -3 -4 6 5 8 4 11 -3 6 -6 -4 -9 -13 -5 -21 3 -8 0 -15 -7
-15 -6 0 -9 -4 -6 -8 6 -10 -77 -167 -90 -168 -21 -2 -43 -17 -38 -26 3 -5 12
-1 20 9 7 10 14 13 14 6 0 -15 -60 -93 -82 -107 -13 -8 -21 -7 -30 3 -11 12
-10 13 6 7 14 -5 17 -2 12 10 -3 8 -6 21 -6 27 0 7 -5 4 -11 -6 -16 -27 -35
-6 -51 56 -18 72 -15 282 6 377 19 83 40 113 101 141 57 26 68 24 109 -21z
m-2000 -58 c10 -21 32 -53 49 -72 18 -19 32 -38 32 -42 0 -15 43 -39 50 -28 4
7 11 7 18 2 13 -10 25 -11 105 -12 57 0 117 20 138 48 13 16 15 16 29 -2 20
-27 19 -46 -6 -72 -24 -25 -17 -53 7 -33 12 9 13 9 9 -2 -3 -8 -17 -22 -32
-33 -20 -15 -27 -16 -33 -5 -5 7 -6 17 -4 21 3 4 -2 5 -10 2 -9 -3 -16 -9 -16
-13 0 -4 -6 -8 -12 -9 -7 0 -26 -5 -43 -11 -26 -9 -22 -9 25 -6 49 4 51 3 20
-5 -43 -12 -130 -4 -188 17 -24 8 -45 13 -48 10 -6 -6 55 -52 108 -80 l45 -24
-32 -21 c-39 -27 -55 -29 -24 -2 l24 19 -40 -6 c-53 -7 -156 -41 -175 -57 -16
-14 -80 -38 -80 -30 0 2 -18 -5 -41 -16 -26 -14 -39 -26 -35 -35 3 -8 0 -16
-7 -19 -9 -3 -8 -7 2 -14 11 -8 13 -25 8 -69 -5 -52 -4 -56 9 -38 8 11 12 25
10 32 -3 7 1 13 9 13 8 0 15 7 15 16 0 8 4 13 9 10 11 -7 53 29 44 38 -4 4 -9
17 -10 30 -3 21 8 30 86 70 95 49 106 53 95 34 -5 -8 -2 -9 9 -5 9 3 19 2 22
-3 6 -9 -60 -53 -81 -53 -8 0 -14 -4 -14 -8 0 -9 -51 -42 -67 -42 -7 0 -10 -3
-8 -7 2 -4 -12 -22 -31 -41 -44 -42 -88 -104 -101 -143 l-9 -30 -37 49 c-54
71 -76 170 -77 346 0 171 54 294 151 343 29 14 67 26 84 26 27 0 35 -6 49 -38z
m1356 -72 c0 -28 -27 -36 -50 -15 -29 26 -25 35 15 35 29 0 35 -4 35 -20z m40
-88 c-39 -122 -133 -172 -230 -122 -35 18 -75 58 -66 67 2 2 17 -9 32 -25 53
-53 153 -50 208 5 16 16 34 52 44 87 9 34 18 53 20 43 2 -9 -2 -34 -8 -55z
m-190 50 c0 -4 -5 -13 -12 -20 -18 -18 -28 -15 -28 8 0 13 7 20 20 20 11 0 20
-4 20 -8z m-1090 -12 c8 -5 12 -11 10 -14 -3 -2 -14 2 -24 10 -22 15 -10 19
14 4z m983 -315 c109 -232 148 -373 150 -540 1 -120 -18 -197 -70 -273 -77
-113 -153 -138 -250 -82 -55 32 -93 74 -117 132 -14 32 -14 41 2 88 17 52 17
52 62 55 71 5 154 41 193 84 20 22 48 74 67 122 46 121 41 176 -27 308 -29 54
-59 127 -68 162 -9 35 -19 73 -22 84 -12 45 17 -6 80 -140z m-1206 -41 c-3 -3
-12 -4 -19 -1 -8 3 -5 6 6 6 11 1 17 -2 13 -5z m1004 -53 c85 -29 133 -57 168
-96 18 -21 30 -39 28 -42 -3 -2 -26 11 -51 30 -59 45 -137 75 -256 96 -52 10
-88 20 -80 23 33 14 139 7 191 -11z m-120 -41 c20 -11 25 -35 10 -45 -24 -14
-114 -24 -132 -15 -24 13 -25 46 -1 59 22 14 98 14 123 1z m-23 -257 c2 -7 -4
-16 -12 -19 -19 -7 -49 14 -40 28 8 13 46 6 52 -9z m-69 -39 c3 -16 1 -17 -13
-5 -19 16 -21 34 -3 29 6 -3 14 -13 16 -24z m331 -54 c0 -23 -45 -39 -62 -22
-16 16 8 42 38 42 17 0 24 -6 24 -20z m-210 -382 c0 -4 25 -25 56 -47 56 -40
56 -41 32 -50 -111 -42 -254 -46 -358 -11 -67 22 -170 79 -170 92 0 5 26 8 59
8 35 0 95 11 147 26 194 58 175 56 206 21 15 -18 28 -35 28 -39z"/>
<path d="M1585 4690 c-3 -5 -1 -10 4 -10 6 0 11 5 11 10 0 6 -2 10 -4 10 -3 0
-8 -4 -11 -10z"/>
<path d="M1780 4202 c0 -9 9 -23 20 -30 11 -7 20 -17 20 -23 0 -5 -5 -7 -11
-3 -7 4 -6 -2 2 -17 l12 -24 10 23 c8 18 6 27 -11 45 -12 13 -22 29 -22 35 0
7 -4 12 -10 12 -5 0 -10 -8 -10 -18z"/>
<path d="M1860 4100 c6 -11 13 -20 16 -20 2 0 0 9 -6 20 -6 11 -13 20 -16 20
-2 0 0 -9 6 -20z"/>
<path d="M1896 4037 c3 -10 9 -15 12 -12 3 3 0 11 -7 18 -10 9 -11 8 -5 -6z"/>
<path d="M1930 3989 c0 -9 10 -24 21 -35 22 -19 22 -19 11 1 -6 11 -16 27 -22
35 -8 13 -10 13 -10 -1z"/>
<path d="M3298 4311 c-5 -18 -8 -50 -7 -70 l1 -36 9 33 c6 19 9 50 7 70 l-3
37 -7 -34z"/>
<path d="M2798 3249 c-41 -23 -5 -70 38 -50 28 13 28 28 -2 47 -13 9 -24 10
-36 3z"/>
<path d="M2881 3147 c-14 -17 -6 -43 16 -51 22 -9 45 13 41 38 -4 25 -40 33
-57 13z"/>
<path d="M2736 3124 c-19 -19 -17 -33 7 -48 24 -15 56 17 41 41 -15 24 -29 26
-48 7z"/>
<path d="M2823 3004 c-14 -37 41 -70 73 -44 18 16 18 25 -2 44 -20 21 -63 20
-71 0z"/>
<path d="M3930 3729 c-16 -30 -8 -31 13 -3 10 13 13 24 8 24 -6 0 -15 -9 -21
-21z"/>
<path d="M3878 3683 c7 -3 16 -2 19 1 4 3 -2 6 -13 5 -11 0 -14 -3 -6 -6z"/>
<path d="M3867 3343 c-10 -9 -9 -23 1 -23 5 0 17 7 28 15 19 14 19 14 -2 15
-11 0 -24 -3 -27 -7z"/>
<path d="M3880 3280 c-29 -58 -20 -71 14 -20 19 28 24 46 18 52 -7 7 -17 -3
-32 -32z"/>
<path d="M4650 3875 c-7 -9 -11 -17 -9 -20 3 -2 10 5 17 15 14 24 10 26 -8 5z"/>
<path d="M4531 3682 c-17 -31 -13 -40 5 -14 9 13 14 26 11 29 -3 2 -10 -4 -16
-15z"/>
<path d="M4446 3554 c-8 -22 -4 -25 11 -9 7 8 9 16 4 19 -5 3 -12 -1 -15 -10z"/>
<path d="M2956 3912 c-2 -4 -1 -14 5 -22 7 -12 9 -10 9 8 0 23 -5 28 -14 14z"/>
<path d="M2751 3829 c8 -5 34 -8 59 -8 53 1 44 6 -24 12 -30 3 -43 1 -35 -4z"/>
<path d="M2888 3833 c6 -2 18 -2 25 0 6 3 1 5 -13 5 -14 0 -19 -2 -12 -5z"/>
<path d="M2287 3580 c3 -47 9 -94 13 -105 10 -27 2 100 -9 150 -7 30 -8 18 -4
-45z"/>
<path d="M2335 3599 c-4 -6 -5 -12 -2 -15 2 -3 7 2 10 11 7 17 1 20 -8 4z"/>
<path d="M2311 3434 c0 -11 3 -14 6 -6 3 7 2 16 -1 19 -3 4 -6 -2 -5 -13z"/>
<path d="M2350 3385 c0 -4 9 -18 20 -32 11 -14 20 -22 20 -18 0 4 -9 18 -20
32 -11 14 -20 22 -20 18z"/>
<path d="M3663 3013 c-7 -2 -13 -15 -13 -28 0 -31 36 -43 58 -21 27 27 -8 65
-45 49z"/>
<path d="M3641 2861 c-7 -13 -6 -23 3 -36 17 -24 50 -15 54 14 6 39 -39 56
-57 22z"/>
<path d="M3507 2834 c-13 -14 -7 -43 12 -53 24 -13 55 8 50 35 -4 19 -48 32
-62 18z"/>
<path d="M2566 2709 c8 -125 77 -284 166 -383 48 -54 76 -74 134 -97 22 -8 15
3 -32 53 -67 72 -111 148 -148 258 -18 54 -25 67 -26 45 0 -16 5 -48 10 -70 5
-22 7 -41 5 -43 -11 -12 -93 196 -109 278 -3 14 -3 -5 0 -41z"/>
<path d="M2331 2564 c0 -11 3 -14 6 -6 3 7 2 16 -1 19 -3 4 -6 -2 -5 -13z"/>
<path d="M2870 2485 c0 -3 19 -15 43 -27 51 -27 156 -31 200 -7 27 14 23 15
-62 11 -64 -3 -102 0 -135 11 -25 9 -46 14 -46 12z"/>
<path d="M3454 2299 c-16 -17 -64 -58 -107 -91 -42 -34 -75 -63 -73 -65 18
-19 164 96 199 156 23 39 18 39 -19 0z"/>
<path d="M2354 2145 c56 -104 95 -146 214 -231 59 -42 129 -97 155 -123 l49
-46 -23 40 c-41 72 -70 104 -127 141 -108 70 -160 115 -223 192 -86 106 -87
107 -45 27z"/>
<path d="M3177 1912 c-5 -52 -6 -96 -3 -99 9 -9 17 61 14 127 l-3 65 -8 -93z"/>
<path d="M3146 1635 c-15 -19 -49 -60 -76 -91 -45 -51 -78 -120 -64 -133 5 -6
141 126 155 151 13 25 28 108 19 108 -4 0 -20 -16 -34 -35z"/>
</g>
</svg>
