<?xml version="1.0" standalone="no"?>
<!DOCTYPE svg PUBLIC "-//W3C//DTD SVG 20010904//EN"
 "http://www.w3.org/TR/2001/REC-SVG-20010904/DTD/svg10.dtd">
<svg version="1.0" xmlns="http://www.w3.org/2000/svg"
 width="500.000000pt" height="500.000000pt" viewBox="0 0 500.000000 500.000000"
 preserveAspectRatio="xMidYMid meet">

<g transform="translate(0.000000,500.000000) scale(0.100000,-0.100000)"
fill="#000000" stroke="none">
<path d="M2410 4153 c-471 -74 -864 -326 -1102 -706 -68 -108 -152 -281 -176
-362 -41 -135 -90 -352 -111 -485 -12 -74 -33 -204 -48 -288 -23 -135 -25
-160 -14 -200 7 -26 16 -51 20 -55 9 -9 35 123 81 418 40 251 85 471 117 570
31 95 151 333 214 424 88 129 278 309 425 403 71 45 235 124 324 156 130 46
271 67 440 65 211 -1 357 -37 443 -109 22 -19 40 -24 84 -24 64 0 184 -38 263
-83 146 -83 365 -280 442 -398 71 -107 159 -275 199 -379 50 -128 65 -196 129
-565 27 -159 58 -333 68 -385 l19 -95 22 67 22 66 -26 124 c-14 68 -37 195
-51 283 -34 222 -56 320 -107 470 -61 181 -150 352 -264 508 -48 67 -224 230
-313 291 -175 120 -281 166 -388 166 -46 0 -71 5 -90 18 -45 31 -173 79 -254
96 -71 15 -297 20 -368 9z"/>
<path d="M2505 4044 c-223 -32 -341 -67 -506 -150 -135 -67 -171 -91 -304
-200 -95 -78 -193 -187 -286 -317 -75 -106 -192 -351 -227 -477 -44 -161 -111
-519 -167 -897 -6 -37 0 -54 70 -190 138 -266 286 -455 471 -602 60 -47 252
-163 342 -205 l62 -30 67 66 c78 75 141 111 178 102 22 -6 23 -8 10 -28 -8
-12 -23 -47 -34 -77 -10 -31 -26 -70 -35 -88 -16 -31 -16 -32 6 -40 25 -10 29
-4 63 92 16 46 18 47 35 32 10 -9 29 -15 42 -13 17 2 27 -4 38 -27 18 -36 62
-45 91 -19 18 16 19 16 19 -3 0 -31 20 -41 77 -40 47 1 50 3 41 20 -6 12 -15
16 -26 12 -41 -17 -52 -16 -74 7 -17 19 -29 23 -48 18 -37 -10 -78 16 -72 46
4 22 2 23 -32 17 -58 -9 -88 36 -50 78 14 16 13 18 -20 29 -38 12 -44 25 -23
54 9 13 23 17 52 14 39 -3 40 -4 37 -39 -2 -23 3 -43 16 -59 15 -18 19 -19 19
-7 0 10 -3 17 -6 17 -4 0 -8 12 -9 27 -1 19 1 24 7 15 6 -11 10 -9 14 7 3 15
13 21 31 21 26 0 66 31 66 50 0 5 60 11 148 12 l147 3 18 -28 c21 -34 65 -53
88 -38 25 15 86 24 114 17 38 -10 35 -54 -5 -67 -27 -10 -28 -12 -14 -26 19
-19 15 -63 -8 -77 -13 -8 -26 -8 -46 0 -27 10 -28 10 -24 -13 2 -13 -1 -30 -8
-38 -14 -17 -66 -20 -76 -4 -3 6 -14 -2 -25 -20 -19 -31 -60 -43 -74 -21 -9
15 -35 12 -35 -3 0 -15 7 -17 70 -20 37 -2 46 2 56 21 7 15 14 20 18 13 18
-29 96 3 96 39 0 13 5 17 19 13 10 -3 28 0 38 6 18 9 22 4 42 -55 17 -47 28
-64 42 -64 10 0 20 4 24 9 6 10 -52 179 -66 195 -14 15 -11 23 11 29 23 6 134
-69 189 -127 19 -20 40 -36 47 -36 41 0 322 155 414 229 141 113 322 316 399
448 19 32 48 83 66 113 18 30 49 95 70 143 43 102 43 117 -5 327 -16 69 -36
175 -45 235 -40 268 -78 430 -135 570 -88 215 -211 409 -352 555 -53 55 -194
174 -251 212 -73 48 -176 86 -259 93 -64 6 -81 11 -100 32 -33 36 -110 72
-187 89 -67 14 -282 26 -336 18z m-900 -574 c24 -27 13 -80 -27 -125 -25 -29
-37 -35 -69 -35 -75 0 -90 77 -26 137 50 48 92 56 122 23z m2128 -23 c57 -46
52 -129 -9 -135 -43 -4 -84 44 -84 97 0 63 41 80 93 38z m-1992 -136 c23 -42
47 -80 53 -86 39 -35 116 -135 116 -151 -1 -25 -34 -99 -50 -109 -28 -17 -174
164 -225 279 -21 46 -22 56 -10 89 30 88 60 83 116 -22z m78 4 c0 -5 -8 6 -19
25 -11 19 -19 40 -19 45 0 6 8 -6 19 -25 11 -19 19 -39 19 -45z m1569 28 c-10
-2 -18 -8 -18 -12 0 -5 -12 -6 -27 -3 l-28 6 30 7 c34 8 71 9 43 2z m-95 -20
c-7 -2 -19 -2 -25 0 -7 3 -2 5 12 5 14 0 19 -2 13 -5z m205 -27 c5 -26 -12
-40 -42 -32 -19 5 -26 13 -26 32 0 22 4 25 32 22 23 -2 34 -9 36 -22z m-1208
4 c0 -5 -9 -10 -21 -10 -11 0 -17 5 -14 10 3 6 13 10 21 10 8 0 14 -4 14 -10z
m812 -88 c93 -193 186 -316 361 -480 l112 -104 22 -137 c30 -183 30 -179 -13
-187 -48 -9 -61 6 -29 36 39 37 33 50 -25 50 -38 0 -52 4 -59 19 -8 14 -7 22
4 31 8 7 15 19 15 26 0 15 -43 29 -64 21 -8 -3 -47 11 -87 31 -63 32 -80 37
-143 37 -80 0 -135 -21 -202 -79 -39 -33 -94 -128 -94 -162 0 -16 2 -16 20 1
21 19 21 19 13 -26 -22 -125 0 -210 74 -281 69 -66 169 -84 266 -48 88 33 142
110 153 218 7 67 -5 116 -43 177 l-26 40 33 -30 c17 -16 43 -52 57 -79 22 -43
25 -59 21 -128 -2 -47 1 -77 6 -75 6 2 25 26 42 53 18 27 45 64 61 83 15 18
34 43 41 55 11 18 12 -7 8 -149 -5 -184 -29 -345 -53 -345 -7 0 -12 -3 -11 -7
0 -5 -2 -17 -6 -28 -5 -11 -10 -27 -14 -35 -3 -8 -6 -18 -6 -22 -3 -21 -56
-75 -119 -122 -210 -155 -489 -236 -817 -236 -353 0 -677 101 -870 271 -44 38
-91 89 -104 112 -34 59 -56 198 -63 402 -5 165 -4 169 13 145 10 -14 24 -29
31 -33 7 -4 24 -29 38 -55 13 -26 35 -60 49 -77 l25 -30 -6 71 c-3 39 -3 88 1
107 6 35 93 154 103 143 3 -3 -4 -17 -15 -31 -28 -35 -46 -127 -38 -193 12
-103 73 -178 168 -207 66 -19 101 -19 168 1 63 19 121 74 146 141 17 43 16
169 -2 223 -7 24 -7 24 19 -5 17 -19 26 -25 27 -15 0 20 -45 116 -59 124 -6 4
-9 11 -6 15 2 5 -14 23 -36 40 -105 85 -226 101 -340 44 -35 -18 -81 -35 -102
-39 -45 -8 -57 -22 -32 -40 18 -13 18 -14 1 -33 -12 -13 -34 -21 -64 -23 -54
-4 -63 -19 -27 -52 30 -28 24 -36 -22 -29 -29 5 -33 9 -33 37 0 35 27 196 34
204 3 2 27 6 53 8 218 19 358 48 526 110 20 8 51 14 68 14 77 0 305 100 429
188 149 106 335 323 355 413 4 16 10 29 13 29 4 -1 28 -44 54 -98z m-824 61
c-10 -2 -28 -2 -40 0 -13 2 -5 4 17 4 22 1 32 -1 23 -4z m-313 -72 c-3 -2 0
-10 6 -18 17 -20 -5 -16 -24 5 -15 16 -15 18 3 18 10 0 17 -2 15 -5z m138 -48
c-7 -2 -19 -2 -25 0 -7 3 -2 5 12 5 14 0 19 -2 13 -5z m-808 -967 c0 -290 6
-277 -88 -182 -58 58 -77 104 -76 182 1 88 15 95 22 10 4 -57 11 -83 23 -95
17 -15 17 -15 5 1 -7 9 -15 57 -18 106 -5 81 -4 93 18 131 20 36 90 101 108
101 4 0 6 -114 6 -254z m2644 229 c56 -40 82 -87 90 -156 4 -35 13 -65 19 -67
17 -5 15 -24 -8 -88 -22 -63 -73 -130 -119 -157 -28 -16 -31 -17 -31 -2 0 9
10 26 23 36 20 19 20 20 2 15 -20 -6 -20 -1 -20 219 0 124 3 225 6 225 3 0 20
-11 38 -25z m-1941 -21 c70 -49 32 -164 -53 -164 -38 0 -85 50 -85 90 0 17 5
40 11 51 20 38 88 50 127 23z m1183 -13 c33 -34 35 -50 13 -96 -41 -86 -164
-56 -167 40 -2 79 95 114 154 56z m-991 -223 c11 -12 20 -31 20 -42 0 -27 -29
-56 -56 -56 -29 0 -64 36 -64 66 0 52 63 72 100 32z m1160 -8 c40 -40 12 -100
-47 -100 -41 0 -71 78 -41 108 19 19 66 14 88 -8z m-305 -48 c-2 -9 -4 -19 -4
-21 -1 -2 -10 4 -21 14 -15 14 -17 21 -9 32 15 17 39 0 34 -25z m-1095 -52
c12 -8 11 -10 -7 -10 -13 0 -23 5 -23 10 0 13 11 13 30 0z m115 -63 c11 -3
-10 -4 -48 -3 -37 2 -71 7 -75 11 -4 5 0 6 9 3 9 -4 22 -3 29 2 7 4 25 4 39 0
14 -5 35 -11 46 -13z m1050 3 c3 -6 -1 -7 -9 -4 -18 7 -21 14 -7 14 6 0 13 -4
16 -10z"/>
<path d="M3060 2919 c-40 -8 -70 -41 -70 -75 0 -31 37 -49 120 -58 35 -4 107
-21 158 -38 64 -20 98 -26 104 -20 28 28 -29 105 -118 157 -46 28 -142 44
-194 34z"/>
<path d="M2058 2573 c7 -3 16 -2 19 1 4 3 -2 6 -13 5 -11 0 -14 -3 -6 -6z"/>
<path d="M3064 2569 c-22 -5 -56 -23 -75 -39 l-34 -29 59 30 c32 16 66 29 75
29 9 0 23 5 31 10 13 9 13 10 0 9 -8 -1 -33 -5 -56 -10z"/>
<path d="M2134 2550 c26 -10 58 -27 70 -37 l21 -18 -20 24 c-25 29 -67 51 -97
51 -16 -1 -7 -7 26 -20z"/>
<path d="M2399 1928 c-15 -28 -5 -106 20 -155 87 -170 283 -163 357 12 21 50
21 133 0 153 -15 15 -19 15 -49 -3 -51 -30 -190 -34 -252 -6 -59 26 -62 26
-76 -1z m246 -89 c22 -6 52 -20 67 -31 27 -18 27 -21 13 -47 -34 -67 -107
-102 -170 -81 -34 11 -105 82 -105 106 0 16 97 64 129 64 15 0 44 -5 66 -11z"/>
<path d="M1660 1715 c7 -8 17 -12 22 -9 6 4 5 10 -3 15 -22 14 -33 10 -19 -6z"/>
<path d="M2873 1193 c-3 -10 -15 -29 -27 -43 -12 -13 -14 -19 -6 -13 8 6 23 9
33 8 9 -2 17 -2 17 -2 0 1 4 17 9 35 8 26 7 32 -5 32 -8 0 -17 -8 -21 -17z"/>
<path d="M2367 1111 c-16 -6 -16 -9 -5 -18 22 -18 80 -45 85 -40 2 3 -5 8 -16
12 -12 3 -21 10 -21 15 0 5 8 7 18 3 20 -7 16 -2 -18 19 -14 8 -33 12 -43 9z"/>
</g>
</svg>
